<?xml version="1.0" encoding="UTF-8"?>
<svg xmlns="http://www.w3.org/2000/svg" xmlns:xlink="http://www.w3.org/1999/xlink" viewBox="0 0 64 64" version="1.1" width="64px" height="64px">
<g id="surface1">
<path style=" fill:#F9E3AE;" d="M 9 7 L 55 7 C 56.105469 7 57 7.894531 57 9 L 57 55 C 57 56.105469 56.105469 57 55 57 L 9 57 C 7.894531 57 7 56.105469 7 55 L 7 9 C 7 7.894531 7.894531 7 9 7 Z "/>
<path style=" fill:#F6D397;" d="M 11 32 L 53 32 C 55.210938 32 57 33.789063 57 36 L 57 54 C 57 55.65625 55.65625 57 54 57 L 10 57 C 8.34375 57 7 55.65625 7 54 L 7 36 C 7 33.789063 8.789063 32 11 32 Z "/>
<path style=" fill:#D18B6B;" d="M 15 13 L 49 13 C 50.105469 13 51 13.894531 51 15 L 51 49 C 51 50.105469 50.105469 51 49 51 L 15 51 C 13.894531 51 13 50.105469 13 49 L 13 15 C 13 13.894531 13.894531 13 15 13 Z "/>
<path style=" fill:#8D6C9F;" d="M 50 12 L 14 12 C 12.894531 12 12 12.894531 12 14 L 12 50 C 12 51.105469 12.894531 52 14 52 L 17 52 C 17.550781 52 18 51.550781 18 51 C 18 50.449219 17.550781 50 17 50 L 14 50 L 14 14 L 50 14 L 50 50 L 47 50 C 46.449219 50 46 50.449219 46 51 C 46 51.550781 46.449219 52 47 52 L 50 52 C 51.105469 52 52 51.105469 52 50 L 52 14 C 52 12.894531 51.105469 12 50 12 Z "/>
<path style=" fill:#8D6C9F;" d="M 55 6 L 9 6 C 7.34375 6 6 7.34375 6 9 L 6 55 C 6 56.65625 7.34375 58 9 58 L 55 58 C 56.65625 58 58 56.65625 58 55 L 58 9 C 58 7.34375 56.65625 6 55 6 Z M 56 55 C 56 55.550781 55.550781 56 55 56 L 9 56 C 8.449219 56 8 55.550781 8 55 L 8 9 C 8 8.449219 8.449219 8 9 8 L 55 8 C 55.550781 8 56 8.449219 56 9 Z "/>
<path style=" fill:#8D6C9F;" d="M 27 48 C 26.449219 48 26 48.449219 26 49 L 26 51 C 26 51.550781 26.449219 52 27 52 C 27.550781 52 28 51.550781 28 51 L 28 49 C 28 48.449219 27.550781 48 27 48 Z "/>
<path style=" fill:#8D6C9F;" d="M 32 48 C 31.449219 48 31 48.449219 31 49 L 31 51 C 31 51.550781 31.449219 52 32 52 C 32.550781 52 33 51.550781 33 51 L 33 49 C 33 48.449219 32.550781 48 32 48 Z "/>
<path style=" fill:#8D6C9F;" d="M 37 48 C 36.449219 48 36 48.449219 36 49 L 36 51 C 36 51.550781 36.449219 52 37 52 C 37.550781 52 38 51.550781 38 51 L 38 49 C 38 48.449219 37.550781 48 37 48 Z "/>
<path style=" fill:#8D6C9F;" d="M 42 48 C 41.449219 48 41 48.449219 41 49 L 41 51 C 41 51.550781 41.449219 52 42 52 C 42.550781 52 43 51.550781 43 51 L 43 49 C 43 48.449219 42.550781 48 42 48 Z "/>
<path style=" fill:#8D6C9F;" d="M 22 48 C 21.449219 48 21 48.449219 21 49 L 21 51 C 21 51.550781 21.449219 52 22 52 C 22.550781 52 23 51.550781 23 51 L 23 49 C 23 48.449219 22.550781 48 22 48 Z "/>
<path style=" fill:#FAEFDE;" d="M 39 29 C 38.449219 29 38 29.449219 38 30 L 38 41 C 38 41.550781 38.449219 42 39 42 C 39.550781 42 40 41.550781 40 41 L 40 30 C 40 29.449219 39.550781 29 39 29 Z "/>
<path style=" fill:#FAEFDE;" d="M 29.359375 22.710938 C 29.234375 22.285156 28.84375 21.988281 28.398438 21.988281 C 27.957031 21.988281 27.5625 22.285156 27.441406 22.710938 L 22.039063 40.710938 C 21.882813 41.238281 22.183594 41.796875 22.714844 41.953125 C 23.246094 42.113281 23.800781 41.808594 23.960938 41.28125 L 25.539063 36 L 31.25 36 L 32.839844 41.289063 C 32.972656 41.726563 33.382813 42.019531 33.839844 42 C 33.9375 42.015625 34.035156 42.015625 34.128906 42 C 34.386719 41.921875 34.597656 41.75 34.726563 41.515625 C 34.851563 41.28125 34.878906 41.003906 34.800781 40.75 Z M 26.140625 34 L 28.398438 26.480469 L 30.660156 34 Z "/>
<path style=" fill:#FAEFDE;" d="M 40.5 25 C 40.5 25.828125 39.828125 26.5 39 26.5 C 38.171875 26.5 37.5 25.828125 37.5 25 C 37.5 24.171875 38.171875 23.5 39 23.5 C 39.828125 23.5 40.5 24.171875 40.5 25 Z "/>
</g>
</svg>
