<?xml version="1.0" encoding="UTF-8"?>
<svg xmlns="http://www.w3.org/2000/svg" xmlns:xlink="http://www.w3.org/1999/xlink" viewBox="0 0 64 64" version="1.1" width="64px" height="64px">
<g id="surface1">
<path style=" fill:#D2EDFF;" d="M 9 7 L 55 7 C 56.105469 7 57 7.894531 57 9 L 57 55 C 57 56.105469 56.105469 57 55 57 L 9 57 C 7.894531 57 7 56.105469 7 55 L 7 9 C 7 7.894531 7.894531 7 9 7 Z "/>
<path style=" fill:#BBDEF9;" d="M 11 32 L 53 32 C 55.210938 32 57 33.789063 57 36 L 57 54 C 57 55.65625 55.65625 57 54 57 L 10 57 C 8.34375 57 7 55.65625 7 54 L 7 36 C 7 33.789063 8.789063 32 11 32 Z "/>
<path style=" fill:#6E91CE;" d="M 15 13 L 49 13 C 50.105469 13 51 13.894531 51 15 L 51 49 C 51 50.105469 50.105469 51 49 51 L 15 51 C 13.894531 51 13 50.105469 13 49 L 13 15 C 13 13.894531 13.894531 13 15 13 Z "/>
<path style=" fill:#8D6C9F;" d="M 50 12 L 14 12 C 12.894531 12 12 12.894531 12 14 L 12 50 C 12 51.105469 12.894531 52 14 52 L 17 52 C 17.550781 52 18 51.550781 18 51 C 18 50.449219 17.550781 50 17 50 L 14 50 L 14 14 L 50 14 L 50 50 L 47 50 C 46.449219 50 46 50.449219 46 51 C 46 51.550781 46.449219 52 47 52 L 50 52 C 51.105469 52 52 51.105469 52 50 L 52 14 C 52 12.894531 51.105469 12 50 12 Z "/>
<path style=" fill:#8D6C9F;" d="M 55 6 L 9 6 C 7.34375 6 6 7.34375 6 9 L 6 55 C 6 56.65625 7.34375 58 9 58 L 55 58 C 56.65625 58 58 56.65625 58 55 L 58 9 C 58 7.34375 56.65625 6 55 6 Z M 56 55 C 56 55.550781 55.550781 56 55 56 L 9 56 C 8.449219 56 8 55.550781 8 55 L 8 9 C 8 8.449219 8.449219 8 9 8 L 55 8 C 55.550781 8 56 8.449219 56 9 Z "/>
<path style=" fill:#8D6C9F;" d="M 27 48 C 26.449219 48 26 48.449219 26 49 L 26 51 C 26 51.550781 26.449219 52 27 52 C 27.550781 52 28 51.550781 28 51 L 28 49 C 28 48.449219 27.550781 48 27 48 Z "/>
<path style=" fill:#8D6C9F;" d="M 32 48 C 31.449219 48 31 48.449219 31 49 L 31 51 C 31 51.550781 31.449219 52 32 52 C 32.550781 52 33 51.550781 33 51 L 33 49 C 33 48.449219 32.550781 48 32 48 Z "/>
<path style=" fill:#8D6C9F;" d="M 37 48 C 36.449219 48 36 48.449219 36 49 L 36 51 C 36 51.550781 36.449219 52 37 52 C 37.550781 52 38 51.550781 38 51 L 38 49 C 38 48.449219 37.550781 48 37 48 Z "/>
<path style=" fill:#8D6C9F;" d="M 42 48 C 41.449219 48 41 48.449219 41 49 L 41 51 C 41 51.550781 41.449219 52 42 52 C 42.550781 52 43 51.550781 43 51 L 43 49 C 43 48.449219 42.550781 48 42 48 Z "/>
<path style=" fill:#8D6C9F;" d="M 22 48 C 21.449219 48 21 48.449219 21 49 L 21 51 C 21 51.550781 21.449219 52 22 52 C 22.550781 52 23 51.550781 23 51 L 23 49 C 23 48.449219 22.550781 48 22 48 Z "/>
<path style=" fill:#FAEFDE;" d="M 32 27 C 32 24.238281 29.761719 22 27 22 L 23 22 C 22.449219 22 22 22.449219 22 23 L 22 41 C 22 41.550781 22.449219 42 23 42 C 23.550781 42 24 41.550781 24 41 L 24 34 L 27 34 C 29.761719 34 32 31.761719 32 29 Z M 30 29 C 30 30.65625 28.65625 32 27 32 L 24 32 L 24 24 L 27 24 C 28.65625 24 30 25.34375 30 27 Z "/>
<path style=" fill:#FAEFDE;" d="M 39.269531 34.371094 L 37.371094 33.738281 C 36.550781 33.46875 36 32.703125 36 31.839844 C 36 30.824219 36.824219 30 37.839844 30 L 38.160156 30 C 38.71875 29.996094 39.25 30.25 39.601563 30.691406 C 39.949219 31.101563 40.5625 31.160156 40.984375 30.820313 C 41.40625 30.484375 41.484375 29.871094 41.160156 29.441406 C 40.433594 28.527344 39.328125 27.996094 38.160156 28 L 37.839844 28 C 35.71875 28 34 29.71875 34 31.839844 C 34 33.558594 35.101563 35.085938 36.730469 35.628906 L 38.628906 36.261719 C 39.449219 36.53125 40 37.296875 40 38.160156 C 40 39.175781 39.175781 40 38.160156 40 L 37.839844 40 C 37.285156 40.003906 36.757813 39.75 36.410156 39.320313 C 36.054688 38.921875 35.449219 38.875 35.035156 39.210938 C 34.621094 39.546875 34.542969 40.148438 34.859375 40.578125 C 35.59375 41.480469 36.699219 42 37.859375 41.988281 L 38.179688 41.988281 C 40.289063 41.980469 41.996094 40.269531 42 38.160156 C 42 36.441406 40.898438 34.914063 39.269531 34.371094 Z "/>
</g>
</svg>
