<?xml version="1.0" encoding="iso-8859-1"?>
<!-- Generator: Adobe Illustrator 22.1.0, SVG Export Plug-In . SVG Version: 6.00 Build 0)  -->
<svg xmlns="http://www.w3.org/2000/svg" xmlns:xlink="http://www.w3.org/1999/xlink" version="1.1" id="Layer_1" x="0px" y="0px" viewBox="0 0 64 64" style="enable-background:new 0 0 64 64;" xml:space="preserve" width="64px" height="64px">
<path style="fill:#B6B6EF;" d="M55,57H9c-1.105,0-2-0.895-2-2V9c0-1.105,0.895-2,2-2h46c1.105,0,2,0.895,2,2v46  C57,56.105,56.105,57,55,57z"/>
<path style="fill:#A2A2EA;" d="M55,57H9c-1.105,0-2-0.895-2-2V36c0-2.209,1.791-4,4-4h42c2.209,0,4,1.791,4,4v19  C57,56.105,56.105,57,55,57z"/>
<path style="fill:#8686CE;" d="M50,50.875H14c-0.552,0-1-0.448-1-1v-36c0-0.552,0.448-1,1-1h36c0.552,0,1,0.448,1,1v36  C51,50.427,50.552,50.875,50,50.875z"/>
<path style="fill:#8D6C9F;" d="M50,12H14c-1.103,0-2,0.897-2,2v36c0,1.103,0.897,2,2,2h3c0.552,0,1-0.448,1-1s-0.448-1-1-1h-3V14h36  v36h-3c-0.552,0-1,0.448-1,1s0.448,1,1,1h3c1.103,0,2-0.897,2-2V14C52,12.897,51.103,12,50,12z"/>
<path style="fill:#8D6C9F;" d="M55,6H9C7.346,6,6,7.346,6,9v46c0,1.654,1.346,3,3,3h46c1.654,0,3-1.346,3-3V9  C58,7.346,56.654,6,55,6z M56,55c0,0.551-0.449,1-1,1H9c-0.551,0-1-0.449-1-1V9c0-0.551,0.449-1,1-1h46c0.551,0,1,0.449,1,1V55z"/>
<path style="fill:#8D6C9F;" d="M27,48c-0.552,0-1,0.448-1,1v2c0,0.552,0.448,1,1,1s1-0.448,1-1v-2C28,48.448,27.552,48,27,48z"/>
<path style="fill:#8D6C9F;" d="M32,48c-0.552,0-1,0.448-1,1v2c0,0.552,0.448,1,1,1c0.552,0,1-0.448,1-1v-2  C33,48.448,32.552,48,32,48z"/>
<path style="fill:#8D6C9F;" d="M37,48c-0.552,0-1,0.448-1,1v2c0,0.552,0.448,1,1,1s1-0.448,1-1v-2C38,48.448,37.552,48,37,48z"/>
<path style="fill:#8D6C9F;" d="M42,48c-0.552,0-1,0.448-1,1v2c0,0.552,0.448,1,1,1s1-0.448,1-1v-2C43,48.448,42.552,48,42,48z"/>
<path style="fill:#8D6C9F;" d="M22,48c-0.552,0-1,0.448-1,1v2c0,0.552,0.448,1,1,1s1-0.448,1-1v-2C23,48.448,22.552,48,22,48z"/>
<path style="fill:#FAEFDE;" d="M27.45,22.72c-0.157-0.53-0.718-0.834-1.255-0.679c-0.332,0.096-0.591,0.352-0.688,0.679  l-5.465,17.981c-0.159,0.53,0.147,1.086,0.683,1.244c0.537,0.157,1.101-0.145,1.26-0.674l1.599-5.275h5.779l1.609,5.284  c0.134,0.437,0.55,0.729,1.012,0.709c0.097,0.014,0.196,0.014,0.293,0c0.536-0.158,0.84-0.715,0.68-1.243  c-0.001-0.002-0.001-0.004-0.002-0.005L27.45,22.72z M24.191,33.998l2.287-7.512l2.287,7.512H24.191z"/>
<path style="fill:#FAEFDE;" d="M44,35c0-5.785-2.719-7-5-7c-1.906,0-4.117,0.848-4.793,4.5C34.074,33.219,34,34.048,34,35  c0,6.091,3.446,7,5.5,7c2.347,0,3.575-1.16,3.707-1.293c0.386-0.386,0.385-1.004,0.006-1.396c-0.38-0.393-1.009-0.403-1.408-0.029  C41.773,39.311,41.019,40,39.5,40c-0.803,0-3.125-0.007-3.457-4H43C43.553,36,44,35.553,44,35z M39,30c1.184,0,2.723,0.447,2.964,4  h-5.928C36.277,30.447,37.816,30,39,30z"/>
</svg>
