<?xml version="1.0" encoding="UTF-8"?>
<svg xmlns="http://www.w3.org/2000/svg" xmlns:xlink="http://www.w3.org/1999/xlink" viewBox="0 0 64 64" version="1.1" width="64px" height="64px">
<g id="surface1">
<path style=" fill:#72CAAF;" d="M 52.828125 3.5 C 50.570313 2.5 42.828125 -0.5 37.230469 1.898438 C 36.863281 2.058594 36.503906 2.238281 36.160156 2.441406 C 34.089844 3.558594 32.621094 5.542969 32.160156 7.851563 C 31.695313 5.542969 30.230469 3.558594 28.160156 2.441406 C 27.816406 2.238281 27.457031 2.058594 27.089844 1.898438 C 21.488281 -0.480469 13.738281 2.519531 11.488281 3.5 C 11.300781 3.578125 11.152344 3.726563 11.078125 3.914063 C 11 4.101563 11 4.3125 11.078125 4.5 C 11.929688 6.820313 15.078125 14.5 20.71875 16.921875 C 21.089844 17.078125 21.464844 17.210938 21.851563 17.320313 C 27.289063 18.878906 37.050781 18.878906 42.488281 17.320313 C 42.875 17.210938 43.25 17.078125 43.621094 16.921875 C 49.21875 14.539063 52.410156 6.808594 53.261719 4.5 C 53.339844 4.3125 53.335938 4.097656 53.257813 3.910156 C 53.175781 3.722656 53.019531 3.574219 52.828125 3.5 Z "/>
<path style=" fill:#5DBC9D;" d="M 15 6.449219 C 14.921875 6.261719 14.917969 6.050781 14.996094 5.863281 C 15.074219 5.675781 15.222656 5.527344 15.410156 5.449219 C 17.460938 4.558594 24.050781 2.011719 29.410156 3.339844 C 28.992188 2.964844 28.539063 2.632813 28.058594 2.339844 C 27.714844 2.136719 27.355469 1.957031 26.988281 1.800781 C 21.390625 -0.578125 13.640625 2.421875 11.390625 3.398438 C 11.203125 3.476563 11.054688 3.625 10.976563 3.8125 C 10.898438 4.003906 10.902344 4.214844 10.980469 4.398438 C 11.828125 6.71875 14.980469 14.398438 20.621094 16.820313 C 20.988281 16.976563 21.367188 17.109375 21.75 17.21875 L 22.148438 17.320313 C 18.148438 14.179688 15.761719 8.410156 15 6.449219 Z "/>
<path style=" fill:#5DBC9D;" d="M 52.828125 3.5 C 50.570313 2.5 42.828125 -0.5 37.230469 1.898438 C 36.863281 2.058594 36.503906 2.238281 36.160156 2.441406 C 35.679688 2.730469 35.230469 3.066406 34.808594 3.441406 C 40.199219 2.109375 46.808594 4.648438 48.808594 5.550781 C 48.996094 5.628906 49.148438 5.777344 49.222656 5.964844 C 49.300781 6.152344 49.300781 6.363281 49.21875 6.550781 C 48.5 8.550781 46.121094 14.28125 42.039063 17.480469 L 42.441406 17.378906 C 42.824219 17.269531 43.203125 17.136719 43.570313 16.980469 C 49.171875 14.601563 52.359375 6.871094 53.210938 4.558594 C 53.3125 4.371094 53.328125 4.148438 53.253906 3.945313 C 53.183594 3.742188 53.027344 3.582031 52.828125 3.5 Z "/>
<path style=" fill:#ED7899;" d="M 53 27.789063 C 52.726563 27.550781 52.4375 27.332031 52.128906 27.140625 C 51.261719 26.488281 52.839844 19.648438 47.128906 17.25 C 46.757813 17.097656 46.417969 16.871094 46.128906 16.589844 C 45.128906 15.589844 42.421875 13.101563 39.949219 13.058594 L 39.699219 13.058594 C 39.351563 13.058594 38.988281 13.058594 38.628906 13.058594 C 38.097656 13.101563 37.5625 13.035156 37.058594 12.859375 C 33.785156 11.726563 30.226563 11.726563 26.949219 12.859375 C 26.453125 13.03125 25.925781 13.097656 25.398438 13.058594 C 25.058594 13.058594 24.730469 13.058594 24.398438 13.058594 L 24.078125 13.058594 C 21.628906 13.058594 18.75 15.261719 17.96875 16.25 C 17.632813 16.664063 17.214844 17.003906 16.738281 17.25 C 10.871094 20.421875 11.859375 27.191406 11.859375 27.191406 C 11.546875 27.390625 11.246094 27.613281 10.96875 27.859375 C 9.113281 29.324219 7.957031 31.5 7.78125 33.859375 C 7.519531 35.660156 7.8125 37.5 8.621094 39.128906 C 8.691406 39.28125 8.78125 39.429688 8.859375 39.578125 C 8.941406 39.730469 9.058594 39.929688 9.171875 40.089844 C 9.28125 40.25 9.550781 40.660156 9.769531 40.949219 C 10.042969 41.320313 10.234375 41.742188 10.328125 42.191406 C 10.566406 43.121094 10.855469 44.035156 11.199219 44.929688 C 11.3125 45.253906 11.378906 45.589844 11.398438 45.929688 C 11.53125 47.332031 11.941406 48.691406 12.609375 49.929688 C 12.703125 50.109375 12.8125 50.277344 12.929688 50.441406 C 14.039063 52.039063 15.632813 53.234375 17.480469 53.851563 C 17.648438 53.914063 17.824219 53.964844 18 54 C 19.714844 55.375 21.621094 56.496094 23.660156 57.320313 L 24.789063 58.109375 C 26.699219 59.984375 29.265625 61.035156 31.941406 61.039063 L 32.070313 61.039063 C 34.746094 61.035156 37.3125 59.984375 39.21875 58.109375 L 40.351563 57.320313 C 42.382813 56.492188 44.289063 55.375 46 54 C 46.179688 53.949219 46.351563 53.886719 46.519531 53.808594 C 48.367188 53.195313 49.960938 52 51.070313 50.398438 C 51.1875 50.238281 51.296875 50.066406 51.390625 49.890625 C 52.058594 48.652344 52.46875 47.289063 52.601563 45.890625 C 52.621094 45.550781 52.6875 45.214844 52.800781 44.890625 C 53.234375 43.753906 53.570313 42.582031 53.800781 41.390625 C 54.03125 41.128906 54.21875 40.871094 54.410156 40.609375 C 54.917969 39.988281 55.316406 39.285156 55.589844 38.53125 C 56.195313 37.074219 56.410156 35.484375 56.210938 33.921875 C 56.058594 31.511719 54.894531 29.285156 53 27.789063 Z "/>
<path style=" fill:#E0678F;" d="M 53.71875 41.941406 C 51.71875 41.398438 47.128906 40.878906 43.558594 45.878906 C 39.988281 50.878906 41.898438 56.199219 46.558594 53.539063 C 51.21875 50.878906 52.179688 49.488281 52.769531 47.28125 C 53.183594 45.519531 53.5 43.734375 53.71875 41.941406 Z "/>
<path style=" fill:#E0678F;" d="M 12 42.558594 C 16 39.421875 25.679688 48.871094 21.488281 53.75 C 17.300781 58.628906 8.460938 45.308594 12 42.558594 Z "/>
<path style=" fill:#E0678F;" d="M 24.578125 57.25 C 24.578125 63.5 39.808594 60.808594 39.808594 57.5 C 39.808594 54.191406 24.578125 53.75 24.578125 57.25 Z "/>
<path style=" fill:#E0678F;" d="M 13.339844 33.558594 C 13.339844 39.089844 10.441406 41.398438 10.441406 41.398438 C 10.441406 41.398438 8 39.421875 8 34.238281 C 7.902344 31.328125 9.601563 28.652344 12.28125 27.5 Z "/>
<path style=" fill:#E0678F;" d="M 50.929688 33.558594 C 50.929688 39.089844 53.828125 41.398438 53.828125 41.398438 C 53.828125 41.398438 56.269531 39.398438 56.269531 34.238281 C 56.367188 31.328125 54.675781 28.65625 52 27.5 Z "/>
<path style=" fill:#F283A5;" d="M 25.640625 44.738281 C 25.640625 53.851563 38.390625 52.851563 38.390625 45.269531 C 38.390625 37.691406 25.640625 36.421875 25.640625 44.738281 Z "/>
<path style=" fill:#F283A5;" d="M 25.660156 19.191406 C 25.660156 23.050781 38.300781 24.128906 38.300781 19.550781 C 38.300781 14.96875 25.660156 14 25.660156 19.191406 Z "/>
<path style=" fill:#F283A5;" d="M 29.160156 31.109375 C 29.160156 27.09375 26.414063 23.839844 23.03125 23.839844 C 19.644531 23.839844 16.898438 27.09375 16.898438 31.109375 C 16.898438 35.125 19.644531 38.378906 23.03125 38.378906 C 26.414063 38.378906 29.160156 35.125 29.160156 31.109375 Z "/>
<path style=" fill:#F283A5;" d="M 46.941406 31.230469 C 46.941406 27.214844 44.195313 23.960938 40.808594 23.960938 C 37.425781 23.960938 34.679688 27.214844 34.679688 31.230469 C 34.679688 35.246094 37.425781 38.5 40.808594 38.5 C 44.195313 38.5 46.941406 35.246094 46.941406 31.230469 Z "/>
<path style=" fill:#8D6C9F;" d="M 39.859375 10.351563 C 39.996094 10.351563 40.132813 10.324219 40.261719 10.269531 L 41.621094 9.710938 L 44.460938 8.578125 C 44.972656 8.375 45.222656 7.792969 45.019531 7.28125 C 44.816406 6.765625 44.234375 6.515625 43.71875 6.71875 L 40.890625 7.839844 L 39.46875 8.429688 C 39.03125 8.617188 38.785156 9.085938 38.882813 9.554688 C 38.980469 10.019531 39.394531 10.355469 39.871094 10.351563 Z "/>
<path style=" fill:#8D6C9F;" d="M 56.550781 38.929688 C 56.550781 38.820313 56.621094 38.710938 56.660156 38.609375 C 56.699219 38.511719 56.738281 38.378906 56.78125 38.269531 C 57.222656 36.960938 57.386719 35.574219 57.261719 34.199219 C 57.261719 34.101563 57.261719 34.011719 57.261719 33.910156 C 57.082031 31.179688 55.734375 28.660156 53.558594 27 L 53.160156 26.679688 C 53.210938 24.679688 52.910156 18.679688 47.550781 16.371094 C 47.335938 16.273438 47.136719 16.136719 46.96875 15.96875 C 51.078125 12.558594 53.449219 6.800781 54.171875 4.839844 C 54.242188 4.644531 54.277344 4.4375 54.28125 4.230469 C 54.277344 3.53125 53.863281 2.898438 53.21875 2.621094 C 50.878906 1.621094 42.789063 -1.519531 36.828125 1.019531 C 36.425781 1.191406 36.03125 1.390625 35.648438 1.609375 C 34.203125 2.414063 32.996094 3.582031 32.140625 5 C 31.292969 3.566406 30.085938 2.382813 28.640625 1.558594 C 28.253906 1.351563 27.855469 1.164063 27.449219 1 C 21.449219 -1.539063 13.449219 1.578125 11.058594 2.601563 C 10.1875 2.953125 9.746094 3.929688 10.058594 4.820313 C 10.769531 6.761719 13.058594 12.328125 17.058594 15.761719 C 16.828125 16.003906 16.550781 16.203125 16.25 16.351563 C 10.949219 19.210938 10.71875 24.78125 10.800781 26.671875 L 10.398438 27 C 8.25 28.667969 6.921875 31.183594 6.761719 33.898438 C 6.761719 34.058594 6.761719 34.210938 6.761719 34.371094 C 6.644531 35.953125 6.90625 37.539063 7.519531 39 C 7.570313 39.128906 7.621094 39.269531 7.679688 39.398438 L 7.730469 39.53125 C 7.808594 39.691406 7.898438 39.859375 7.988281 40.011719 L 8 40.011719 C 8.089844 40.171875 8.179688 40.320313 8.269531 40.46875 L 8.328125 40.578125 C 8.53125 40.890625 8.75 41.199219 8.980469 41.511719 C 9.167969 41.765625 9.296875 42.058594 9.359375 42.371094 C 9.601563 43.335938 9.902344 44.289063 10.261719 45.21875 C 10.34375 45.460938 10.394531 45.714844 10.410156 45.96875 C 10.410156 46.230469 10.46875 46.488281 10.511719 46.75 C 10.617188 47.398438 10.78125 48.039063 11 48.660156 C 11.140625 49.070313 11.304688 49.46875 11.488281 49.859375 L 11.609375 50.121094 C 11.609375 50.199219 11.691406 50.289063 11.730469 50.371094 L 11.808594 50.488281 L 11.941406 50.738281 L 12.089844 50.929688 L 12.089844 51 C 12.269531 51.238281 12.449219 51.460938 12.628906 51.671875 L 12.828125 51.898438 C 13.078125 52.179688 13.328125 52.429688 13.578125 52.660156 L 13.738281 52.800781 C 14.707031 53.679688 15.847656 54.34375 17.089844 54.75 C 17.222656 54.8125 17.359375 54.863281 17.5 54.910156 C 19.222656 56.265625 21.125 57.382813 23.148438 58.21875 L 24.089844 58.878906 L 24.320313 59.089844 L 24.601563 59.339844 L 25.019531 59.660156 L 25.300781 59.871094 L 25.730469 60.148438 L 26.160156 60.421875 L 26.511719 60.609375 L 27.140625 60.929688 L 27.410156 61.039063 C 27.671875 61.148438 27.941406 61.261719 28.21875 61.359375 L 28.460938 61.429688 C 28.75 61.53125 29.050781 61.621094 29.359375 61.691406 L 29.648438 61.75 C 29.941406 61.808594 30.230469 61.859375 30.539063 61.898438 L 30.980469 61.898438 C 31.179688 61.898438 31.371094 61.898438 31.578125 61.898438 L 32.230469 61.898438 C 32.449219 61.898438 32.660156 61.898438 32.871094 61.898438 L 33.269531 61.898438 C 33.53125 61.898438 33.789063 61.820313 34.050781 61.769531 L 34.480469 61.691406 C 34.710938 61.628906 34.929688 61.558594 35.148438 61.488281 L 35.609375 61.351563 C 35.820313 61.269531 36.019531 61.191406 36.21875 61.101563 L 36.660156 60.921875 C 37.285156 60.636719 37.890625 60.300781 38.460938 59.921875 C 38.710938 59.738281 38.949219 59.570313 39.148438 59.390625 L 39.320313 59.238281 L 39.660156 58.941406 L 40.601563 58.28125 C 42.625 57.441406 44.527344 56.328125 46.25 54.96875 C 46.390625 54.925781 46.527344 54.871094 46.660156 54.808594 C 48.6875 54.128906 50.445313 52.8125 51.660156 51.050781 C 51.8125 50.855469 51.949219 50.644531 52.058594 50.421875 C 52.871094 49.070313 53.390625 47.5625 53.589844 46 C 53.609375 45.734375 53.664063 45.472656 53.75 45.21875 C 54.171875 44.132813 54.507813 43.011719 54.75 41.871094 C 54.921875 41.671875 55.058594 41.46875 55.191406 41.289063 C 55.726563 40.632813 56.15625 39.890625 56.460938 39.101563 Z M 54.691406 38.191406 C 54.445313 38.816406 54.109375 39.402344 53.691406 39.929688 C 52.726563 37.921875 52.179688 35.742188 52.078125 33.519531 C 51.808594 30.671875 52.078125 29.101563 52.328125 28.519531 L 52.378906 28.519531 C 54.066406 29.851563 55.105469 31.84375 55.230469 33.988281 C 55.230469 34.109375 55.230469 34.21875 55.230469 34.339844 C 55.28125 35.417969 55.152344 36.496094 54.851563 37.53125 C 54.820313 37.800781 54.769531 38 54.691406 38.191406 Z M 12.070313 4.320313 C 14.460938 3.320313 21.601563 0.660156 26.671875 2.820313 C 27.011719 2.960938 27.347656 3.121094 27.671875 3.300781 C 29.472656 4.269531 30.753906 5.992188 31.160156 8 C 31.160156 8.550781 31.609375 9 32.160156 9 C 32.710938 9 33.160156 8.550781 33.160156 8 C 33.566406 5.992188 34.847656 4.269531 36.648438 3.300781 C 36.972656 3.121094 37.308594 2.960938 37.648438 2.820313 C 42.71875 0.660156 49.859375 3.308594 52.261719 4.320313 C 51.488281 6.378906 49.261719 11.671875 45.519531 14.589844 C 43.921875 13.269531 41.96875 12.089844 40.089844 12.058594 L 39.699219 12.058594 C 39.320313 12.058594 38.941406 12.058594 38.550781 12.058594 C 38.164063 12.125 37.769531 12.105469 37.390625 12 C 35.140625 11.230469 32.753906 10.949219 30.390625 11.179688 C 27.363281 9.082031 23.972656 7.5625 20.390625 6.699219 C 19.835938 6.582031 19.292969 6.933594 19.175781 7.484375 C 19.054688 8.039063 19.40625 8.582031 19.960938 8.699219 C 22.617188 9.363281 25.167969 10.394531 27.539063 11.761719 C 27.238281 11.839844 26.929688 11.941406 26.628906 12.039063 C 26.257813 12.167969 25.863281 12.21875 25.46875 12.191406 C 25.109375 12.191406 24.75 12.191406 24.46875 12.191406 L 24.101563 12.191406 C 22.066406 12.382813 20.136719 13.191406 18.570313 14.5 C 15 11.421875 12.820313 6.328125 12.070313 4.320313 Z M 11.898438 33.511719 C 11.800781 35.730469 11.253906 37.90625 10.289063 39.910156 L 10.191406 39.769531 L 10 39.5 C 9.910156 39.371094 9.828125 39.21875 9.738281 39.058594 C 9.660156 38.925781 9.585938 38.785156 9.519531 38.640625 C 9.410156 38.410156 9.328125 38.171875 9.238281 37.941406 C 8.871094 36.84375 8.703125 35.695313 8.738281 34.539063 C 8.738281 34.328125 8.738281 34.128906 8.738281 33.910156 C 8.894531 31.808594 9.925781 29.871094 11.578125 28.570313 C 11.898438 29.101563 12.171875 30.671875 11.898438 33.511719 Z M 13.898438 42.839844 L 14 42.839844 C 15.46875 42.839844 17.511719 44.109375 19.210938 46.089844 C 20.515625 47.691406 21.203125 49.707031 21.148438 51.769531 C 21.128906 52.136719 20.992188 52.484375 20.761719 52.769531 C 19.878906 53.164063 18.882813 53.207031 17.96875 52.890625 L 17.859375 52.890625 C 16.234375 52.328125 14.832031 51.261719 13.859375 49.839844 C 13.792969 49.746094 13.734375 49.648438 13.679688 49.550781 C 13.53125 49.269531 13.398438 48.988281 13.28125 48.71875 C 13.160156 48.449219 13.109375 48.289063 13.03125 48.078125 C 12.949219 47.871094 12.910156 47.738281 12.859375 47.578125 C 12.808594 47.421875 12.769531 47.21875 12.730469 47.039063 C 12.691406 46.859375 12.660156 46.71875 12.628906 46.570313 C 12.601563 46.421875 12.628906 46.289063 12.570313 46.148438 C 12.285156 45.109375 12.441406 44 13 43.078125 C 13.277344 42.925781 13.59375 42.847656 13.910156 42.851563 Z M 38.480469 57.460938 C 38.378906 57.570313 38.25 57.679688 38.121094 57.800781 C 37.070313 58.675781 35.859375 59.332031 34.550781 59.730469 L 34.378906 59.730469 L 33.738281 59.878906 L 33.28125 59.960938 L 31.730469 59.960938 C 31.511719 59.960938 31.292969 59.960938 31.078125 59.960938 L 30.78125 59.960938 C 30.535156 59.960938 30.285156 59.917969 30.039063 59.828125 L 29.738281 59.761719 L 29.191406 59.601563 L 28.691406 59.421875 L 28.390625 59.300781 C 27.472656 58.910156 26.621094 58.382813 25.859375 57.738281 C 25.738281 57.628906 25.609375 57.519531 25.511719 57.410156 C 25.414063 57.3125 25.332031 57.207031 25.261719 57.089844 C 25.769531 56.429688 28.960938 55.429688 31.859375 55.429688 L 32 55.429688 C 35 55.371094 38.261719 56.429688 38.71875 57.089844 C 38.652344 57.222656 38.574219 57.347656 38.480469 57.460938 Z M 51.859375 44.558594 C 51.714844 44.96875 51.628906 45.398438 51.601563 45.828125 C 51.472656 47.097656 51.101563 48.328125 50.5 49.449219 C 50.429688 49.582031 50.347656 49.710938 50.261719 49.828125 C 49.289063 51.25 47.886719 52.320313 46.261719 52.878906 L 46.148438 52.878906 C 46.035156 52.933594 45.914063 52.976563 45.789063 53.011719 L 45.671875 53.070313 C 45.558594 53.050781 45.441406 53.050781 45.328125 53.070313 C 44.679688 53.1875 44.007813 53.117188 43.398438 52.859375 C 43.105469 52.566406 42.933594 52.175781 42.921875 51.761719 C 42.867188 49.695313 43.554688 47.679688 44.859375 46.078125 C 45.214844 45.65625 45.15625 45.023438 44.730469 44.671875 C 44.304688 44.316406 43.671875 44.375 43.320313 44.800781 C 41.648438 46.816406 40.785156 49.382813 40.898438 52 C 40.96875 52.996094 41.460938 53.914063 42.25 54.519531 C 42.5 54.664063 42.765625 54.777344 43.039063 54.859375 C 42.226563 55.363281 41.378906 55.804688 40.5 56.179688 C 40.402344 56.011719 40.285156 55.859375 40.148438 55.71875 C 38.648438 54.171875 34.519531 53.46875 32.148438 53.46875 L 31.929688 53.46875 C 29.53125 53.46875 25.398438 54.171875 23.929688 55.71875 C 23.796875 55.859375 23.675781 56.011719 23.578125 56.179688 C 22.691406 55.800781 21.832031 55.359375 21.011719 54.851563 C 21.320313 54.761719 21.621094 54.632813 21.898438 54.46875 C 22.621094 53.847656 23.058594 52.953125 23.101563 52 C 23.21875 49.386719 22.363281 46.820313 20.699219 44.800781 C 18.53125 42.28125 15.988281 40.800781 13.871094 40.800781 C 13.164063 40.796875 12.472656 40.988281 11.871094 41.351563 L 11.78125 41.410156 C 11.589844 41.558594 11.417969 41.730469 11.269531 41.921875 C 11.269531 41.859375 11.269531 41.808594 11.210938 41.75 L 11.410156 41.601563 C 13.53125 39.71875 14.628906 30.929688 13.53125 27.960938 C 13.386719 27.527344 13.136719 27.136719 12.800781 26.828125 C 12.71875 25.890625 12.449219 20.640625 17.179688 18.078125 C 17.734375 17.792969 18.230469 17.402344 18.640625 16.929688 L 18.710938 16.859375 C 19.160156 16.359375 19.671875 15.921875 20.230469 15.550781 C 21.351563 14.714844 22.679688 14.195313 24.070313 14.050781 L 24.210938 14.050781 C 24.511719 14.050781 24.910156 14.050781 25.289063 14.050781 C 25.964844 14.105469 26.648438 14.023438 27.289063 13.808594 C 28.105469 13.53125 28.941406 13.324219 29.789063 13.191406 C 32.136719 12.8125 34.542969 13.023438 36.789063 13.808594 C 37.429688 14.035156 38.113281 14.121094 38.789063 14.058594 C 39.121094 14.058594 39.449219 14.058594 39.789063 14.058594 L 40 14.058594 C 41.375 14.222656 42.664063 14.804688 43.699219 15.71875 C 44.261719 16.152344 44.800781 16.617188 45.308594 17.109375 L 45.5 17.300781 C 45.855469 17.671875 46.285156 17.96875 46.761719 18.171875 C 51.230469 20.070313 51.191406 25.761719 51.140625 26.851563 C 50.8125 27.167969 50.570313 27.5625 50.441406 28 C 49.339844 31 50.441406 39.789063 52.558594 41.671875 L 52.71875 41.789063 C 52.492188 42.730469 52.207031 43.65625 51.859375 44.558594 Z "/>
<path style=" fill:#8D6C9F;" d="M 32 23.890625 L 32.109375 23.890625 C 36.261719 23.890625 39.511719 21.808594 39.488281 19.269531 C 39.488281 17.160156 35.96875 14.488281 32.050781 14.488281 C 28.128906 14.488281 24.621094 17.160156 24.609375 19.269531 C 24.539063 21.808594 27.789063 23.839844 32 23.890625 Z M 32 16.488281 C 35.121094 16.488281 37.441406 18.628906 37.441406 19.28125 C 37.441406 20.339844 35.441406 21.851563 31.960938 21.890625 C 28.480469 21.929688 26.550781 20.351563 26.550781 19.28125 C 26.558594 18.628906 28.878906 16.488281 32 16.488281 Z "/>
<path style=" fill:#8D6C9F;" d="M 30.070313 33.410156 C 30.785156 31.359375 30.65625 29.109375 29.71875 27.148438 C 28.914063 25.488281 27.472656 24.222656 25.71875 23.640625 C 25.015625 23.40625 24.28125 23.292969 23.539063 23.300781 C 20.21875 23.425781 17.335938 25.632813 16.351563 28.808594 C 15.636719 30.859375 15.761719 33.109375 16.699219 35.070313 C 17.503906 36.730469 18.949219 37.996094 20.699219 38.578125 C 21.382813 38.8125 22.097656 38.929688 22.820313 38.929688 C 26.164063 38.816406 29.070313 36.601563 30.070313 33.410156 Z M 21.339844 36.679688 C 20.109375 36.257813 19.101563 35.355469 18.539063 34.179688 C 17.835938 32.699219 17.746094 30.996094 18.289063 29.449219 C 19.003906 27.082031 21.128906 25.417969 23.601563 25.300781 C 24.105469 25.296875 24.609375 25.378906 25.089844 25.539063 C 26.320313 25.964844 27.328125 26.867188 27.890625 28.039063 C 28.59375 29.523438 28.683594 31.222656 28.140625 32.769531 C 27.128906 35.828125 24.058594 37.589844 21.328125 36.671875 Z "/>
<path style=" fill:#8D6C9F;" d="M 47.230469 28.800781 C 46.234375 25.613281 43.335938 23.40625 40 23.300781 C 39.257813 23.292969 38.523438 23.40625 37.820313 23.640625 C 36.066406 24.222656 34.625 25.488281 33.820313 27.148438 C 32.882813 29.109375 32.757813 31.359375 33.46875 33.410156 C 34.472656 36.597656 37.378906 38.808594 40.71875 38.921875 C 41.441406 38.917969 42.15625 38.800781 42.839844 38.570313 C 44.59375 37.988281 46.035156 36.722656 46.839844 35.058594 C 47.792969 33.105469 47.929688 30.855469 47.230469 28.800781 Z M 45.089844 34.171875 C 44.53125 35.34375 43.519531 36.246094 42.289063 36.671875 C 39.558594 37.589844 36.488281 35.828125 35.449219 32.761719 C 34.898438 31.203125 34.988281 29.492188 35.699219 28 C 36.261719 26.824219 37.269531 25.925781 38.5 25.5 C 38.984375 25.351563 39.492188 25.285156 40 25.300781 C 42.46875 25.417969 44.597656 27.082031 45.308594 29.449219 C 45.859375 30.996094 45.777344 32.695313 45.078125 34.179688 Z "/>
<path style=" fill:#8D6C9F;" d="M 32 38 C 30.105469 37.980469 28.273438 38.671875 26.859375 39.929688 C 25.433594 41.199219 24.613281 43.011719 24.605469 44.917969 C 24.59375 46.828125 25.398438 48.648438 26.808594 49.929688 C 29.742188 52.636719 34.265625 52.636719 37.199219 49.929688 C 38.617188 48.648438 39.417969 46.828125 39.410156 44.917969 C 39.402344 43.011719 38.578125 41.195313 37.148438 39.929688 C 35.734375 38.667969 33.898438 37.980469 32 38 Z M 35.839844 48.5 C 33.671875 50.492188 30.339844 50.492188 28.171875 48.5 C 27.175781 47.605469 26.601563 46.335938 26.578125 45 C 26.597656 43.636719 27.183594 42.339844 28.199219 41.429688 C 30.382813 39.546875 33.617188 39.546875 35.800781 41.429688 C 36.8125 42.34375 37.402344 43.636719 37.421875 45 C 37.402344 46.335938 36.828125 47.601563 35.839844 48.5 Z "/>
<path style=" fill:#8D6C9F;" d="M 47.578125 25.238281 C 48.03125 25.558594 48.65625 25.457031 48.976563 25.003906 C 49.296875 24.554688 49.191406 23.929688 48.738281 23.609375 C 46.53125 22.015625 44.480469 20.214844 42.609375 18.230469 C 42.238281 17.820313 41.605469 17.792969 41.195313 18.164063 C 40.785156 18.539063 40.757813 19.171875 41.128906 19.578125 C 43.097656 21.667969 45.257813 23.5625 47.578125 25.238281 Z "/>
<path style=" fill:#8D6C9F;" d="M 22.769531 19.550781 C 23.101563 19.140625 23.054688 18.542969 22.667969 18.1875 C 22.28125 17.828125 21.679688 17.835938 21.300781 18.199219 C 19.445313 20.144531 17.414063 21.914063 15.230469 23.480469 C 14.777344 23.796875 14.667969 24.421875 14.984375 24.875 C 15.300781 25.328125 15.925781 25.4375 16.378906 25.121094 C 18.679688 23.46875 20.820313 21.601563 22.769531 19.550781 Z "/>
<path style=" fill:#8D6C9F;" d="M 49.898438 40.851563 C 48.894531 40.910156 47.914063 41.199219 47.039063 41.699219 C 46.554688 41.964844 46.375 42.574219 46.640625 43.058594 C 46.90625 43.546875 47.515625 43.726563 48 43.460938 C 48.613281 43.105469 49.296875 42.898438 50 42.851563 C 50.550781 42.851563 51 42.402344 51 41.851563 C 51 41.566406 50.882813 41.296875 50.671875 41.105469 C 50.464844 40.914063 50.183594 40.820313 49.898438 40.851563 Z "/>
<path style=" fill:#8D6C9F;" d="M 2.671875 27.660156 L 4.570313 28.660156 C 5.054688 28.9375 5.675781 28.765625 5.949219 28.28125 C 6.226563 27.792969 6.054688 27.175781 5.570313 26.898438 L 3.671875 25.898438 C 3.183594 25.625 2.566406 25.792969 2.289063 26.28125 C 2.015625 26.765625 2.183594 27.382813 2.671875 27.660156 Z "/>
<path style=" fill:#8D6C9F;" d="M 5 38.128906 C 4.839844 37.605469 4.289063 37.304688 3.761719 37.460938 L 1.539063 38.121094 C 1.105469 38.34375 0.894531 38.847656 1.042969 39.316406 C 1.191406 39.78125 1.65625 40.070313 2.140625 40 L 4.359375 39.339844 C 4.859375 39.167969 5.140625 38.640625 5 38.128906 Z "/>
<path style=" fill:#8D6C9F;" d="M 6 42.519531 L 4.238281 44 C 3.9375 44.21875 3.785156 44.585938 3.835938 44.953125 C 3.890625 45.324219 4.144531 45.628906 4.496094 45.753906 C 4.847656 45.875 5.238281 45.792969 5.511719 45.539063 L 7.300781 44.058594 C 7.726563 43.699219 7.777344 43.066406 7.421875 42.640625 C 7.0625 42.214844 6.425781 42.160156 6 42.519531 Z "/>
<path style=" fill:#8D6C9F;" d="M 7.671875 24.320313 C 8.035156 24.746094 8.675781 24.792969 9.101563 24.429688 C 9.523438 24.066406 9.574219 23.425781 9.210938 23 L 7.839844 21.378906 C 7.480469 20.996094 6.878906 20.957031 6.472656 21.292969 C 6.066406 21.628906 5.988281 22.222656 6.300781 22.648438 Z "/>
<path style=" fill:#8D6C9F;" d="M 3.46875 34.148438 L 3.570313 34.148438 C 4.121094 34.175781 4.589844 33.746094 4.613281 33.195313 C 4.640625 32.644531 4.210938 32.175781 3.660156 32.148438 L 1.359375 31.929688 C 0.808594 31.878906 0.316406 32.28125 0.265625 32.835938 C 0.210938 33.386719 0.617188 33.878906 1.171875 33.929688 Z "/>
</g>
</svg>
