<?xml version="1.0" encoding="UTF-8"?>
<svg xmlns="http://www.w3.org/2000/svg" xmlns:xlink="http://www.w3.org/1999/xlink" viewBox="0 0 64 64" version="1.1" width="64px" height="64px">
<g id="surface1">
<path style=" fill:#F9E3AE;" d="M 51.351563 53.71875 L 33.078125 58.71875 C 32.375 58.917969 31.632813 58.917969 30.929688 58.71875 L 13.558594 53.71875 C 12.011719 53.277344 10.882813 51.949219 10.691406 50.351563 L 5.269531 5.238281 C 5.203125 4.671875 5.378906 4.101563 5.757813 3.675781 C 6.136719 3.246094 6.679688 3 7.25 3 L 56.789063 3 C 57.355469 2.996094 57.898438 3.234375 58.28125 3.65625 C 58.660156 4.074219 58.847656 4.636719 58.789063 5.199219 L 54.269531 50.261719 C 54.105469 51.90625 52.945313 53.28125 51.351563 53.71875 Z "/>
<path style=" fill:#F6D397;" d="M 56.789063 3 L 32 3 L 32 58.851563 C 32.363281 58.851563 32.726563 58.804688 33.078125 58.710938 L 51.351563 53.710938 C 52.949219 53.273438 54.113281 51.898438 54.28125 50.25 L 58.78125 5.199219 C 58.835938 4.636719 58.652344 4.078125 58.273438 3.660156 C 57.894531 3.238281 57.355469 3 56.789063 3 Z "/>
<path style=" fill:#FAEFDE;" d="M 47 15 L 17.160156 15 C 16.871094 14.996094 16.59375 15.121094 16.402344 15.335938 C 16.210938 15.554688 16.121094 15.84375 16.160156 16.128906 L 18.320313 32.128906 C 18.386719 32.632813 18.816406 33.003906 19.320313 33 L 38.949219 33 C 39.242188 32.996094 39.519531 33.121094 39.710938 33.339844 C 39.902344 33.558594 39.992188 33.851563 39.949219 34.140625 L 39.109375 40.140625 C 39.054688 40.515625 38.792969 40.832031 38.429688 40.949219 L 32.339844 42.949219 C 32.128906 43.023438 31.902344 43.023438 31.691406 42.949219 L 26.390625 41 C 26.035156 40.875 25.78125 40.5625 25.730469 40.191406 L 25.421875 37.859375 C 25.355469 37.359375 24.925781 36.984375 24.421875 36.988281 L 20.421875 36.988281 C 20.128906 36.988281 19.855469 37.109375 19.664063 37.328125 C 19.472656 37.542969 19.382813 37.832031 19.421875 38.121094 L 20.28125 44.550781 C 20.332031 44.929688 20.59375 45.25 20.960938 45.371094 L 31.699219 48.898438 C 31.898438 48.964844 32.113281 48.964844 32.308594 48.898438 L 43.941406 45.308594 C 44.316406 45.195313 44.589844 44.871094 44.640625 44.480469 L 46.140625 33 L 46.691406 28.109375 C 46.722656 27.828125 46.628906 27.542969 46.4375 27.332031 C 46.246094 27.117188 45.976563 27 45.691406 27 L 24.558594 27 C 24.054688 27.003906 23.625 26.632813 23.558594 26.128906 L 23.019531 22.128906 C 22.984375 21.847656 23.070313 21.5625 23.257813 21.34375 C 23.441406 21.128906 23.714844 21.003906 24 21 L 46.601563 21 C 47.113281 21.003906 47.542969 20.617188 47.601563 20.109375 L 48.050781 16.109375 C 48.082031 15.816406 47.984375 15.523438 47.78125 15.3125 C 47.582031 15.097656 47.292969 14.984375 47 15 Z "/>
<path style=" fill:#8D6C9F;" d="M 59 3 C 58.433594 2.367188 57.628906 2.003906 56.78125 2 L 7.25 2 C 6.386719 1.992188 5.566406 2.359375 4.992188 3 C 4.417969 3.644531 4.148438 4.503906 4.25 5.359375 L 9.691406 50.480469 C 9.929688 52.476563 11.34375 54.136719 13.28125 54.691406 L 30.648438 59.691406 C 31.53125 59.9375 32.460938 59.9375 33.339844 59.691406 L 51.609375 54.691406 C 53.609375 54.144531 55.066406 52.421875 55.269531 50.359375 L 59.78125 5.300781 C 59.855469 4.457031 59.574219 3.621094 59 3 Z M 53.28125 50.160156 C 53.15625 51.398438 52.28125 52.433594 51.078125 52.761719 L 32.808594 57.761719 C 32.285156 57.90625 31.726563 57.90625 31.199219 57.761719 L 13.828125 52.761719 C 12.667969 52.425781 11.820313 51.429688 11.679688 50.230469 L 6.839844 10 C 6.894531 10.003906 6.945313 10.003906 7 10 C 7.550781 10 8 9.550781 8 9 L 8 7 C 8 6.449219 7.550781 6 7 6 C 6.777344 6.003906 6.5625 6.082031 6.390625 6.21875 L 6.261719 5.121094 C 6.226563 4.835938 6.3125 4.550781 6.503906 4.335938 C 6.691406 4.125 6.964844 4 7.25 4 L 56.789063 4 C 57.074219 4 57.34375 4.117188 57.535156 4.328125 C 57.726563 4.535156 57.816406 4.816406 57.789063 5.101563 L 57.671875 6.269531 C 57.488281 6.101563 57.25 6.003906 57 6 C 56.449219 6 56 6.449219 56 7 L 56 9 C 56 9.550781 56.449219 10 57 10 C 57.101563 9.996094 57.203125 9.976563 57.300781 9.941406 Z "/>
<path style=" fill:#8D6C9F;" d="M 41.699219 50 L 39.699219 50.628906 C 39.148438 50.710938 38.765625 51.226563 38.851563 51.78125 C 38.933594 52.332031 39.449219 52.710938 40 52.628906 C 40.097656 52.644531 40.199219 52.644531 40.300781 52.628906 L 42.300781 52 C 42.851563 51.835938 43.164063 51.253906 43 50.699219 C 42.835938 50.148438 42.253906 49.835938 41.699219 50 Z "/>
<path style=" fill:#8D6C9F;" d="M 35.699219 51.941406 L 32.25 53 C 32.058594 53.058594 31.851563 53.058594 31.660156 53 L 27.28125 51.691406 C 26.75 51.53125 26.191406 51.835938 26.035156 52.363281 C 25.878906 52.894531 26.179688 53.453125 26.710938 53.609375 L 31.089844 54.921875 C 31.664063 55.097656 32.277344 55.097656 32.851563 54.921875 L 36.289063 53.828125 C 36.816406 53.664063 37.109375 53.101563 36.945313 52.574219 C 36.78125 52.046875 36.21875 51.753906 35.691406 51.921875 Z "/>
<path style=" fill:#8D6C9F;" d="M 47 14 L 17.160156 14 C 16.578125 13.996094 16.023438 14.242188 15.640625 14.679688 C 15.257813 15.113281 15.082031 15.695313 15.160156 16.269531 L 17.320313 32.269531 C 17.457031 33.269531 18.3125 34.007813 19.320313 34 L 38.949219 34 L 38.109375 40 L 32.019531 42 L 26.738281 40.121094 L 26.429688 37.789063 C 26.292969 36.792969 25.4375 36.050781 24.429688 36.058594 L 20.429688 36.058594 C 19.847656 36.054688 19.296875 36.300781 18.910156 36.738281 C 18.527344 37.171875 18.351563 37.753906 18.429688 38.328125 L 19.289063 44.769531 C 19.394531 45.527344 19.921875 46.160156 20.648438 46.398438 L 31.390625 49.921875 C 31.589844 49.976563 31.792969 50.003906 32 50 C 32.199219 50 32.398438 49.96875 32.589844 49.910156 L 44.21875 46.320313 C 44.964844 46.089844 45.507813 45.445313 45.609375 44.671875 L 47.121094 33.160156 L 47.671875 28.269531 C 47.734375 27.703125 47.550781 27.136719 47.167969 26.710938 C 46.785156 26.289063 46.242188 26.046875 45.671875 26.050781 L 24.558594 26.050781 L 24 22 L 46.601563 22 C 47.625 22.007813 48.488281 21.238281 48.601563 20.21875 L 49.050781 16.21875 C 49.113281 15.644531 48.925781 15.066406 48.53125 14.640625 C 48.136719 14.214844 47.578125 13.980469 47 14 Z M 46.550781 20 L 24 20 C 23.417969 19.996094 22.863281 20.242188 22.480469 20.679688 C 22.097656 21.113281 21.921875 21.695313 22 22.269531 L 22.539063 26.269531 C 22.675781 27.269531 23.53125 28.007813 24.539063 28 L 45.691406 28 L 45.148438 32.871094 L 43.640625 44.359375 L 32 48 L 21.269531 44.441406 L 20.398438 38 L 24.398438 38 L 24.710938 40.328125 C 24.808594 41.074219 25.3125 41.699219 26.019531 41.949219 L 31.300781 43.828125 C 31.71875 43.972656 32.171875 43.972656 32.589844 43.828125 L 38.679688 41.828125 C 39.40625 41.59375 39.933594 40.964844 40.039063 40.210938 L 40.878906 34.210938 C 40.960938 33.632813 40.789063 33.050781 40.402344 32.609375 C 40.019531 32.171875 39.460938 31.925781 38.878906 31.929688 L 19.320313 31.929688 L 17.160156 16 L 47 16 Z "/>
<path style=" fill:#8D6C9F;" d="M 12 6 C 11.449219 6 11 6.449219 11 7 L 11 9 C 11 9.550781 11.449219 10 12 10 C 12.550781 10 13 9.550781 13 9 L 13 7 C 13 6.449219 12.550781 6 12 6 Z "/>
<path style=" fill:#8D6C9F;" d="M 17 10 C 17.550781 10 18 9.550781 18 9 L 18 7 C 18 6.449219 17.550781 6 17 6 C 16.449219 6 16 6.449219 16 7 L 16 9 C 16 9.550781 16.449219 10 17 10 Z "/>
<path style=" fill:#8D6C9F;" d="M 22 10 C 22.550781 10 23 9.550781 23 9 L 23 7 C 23 6.449219 22.550781 6 22 6 C 21.449219 6 21 6.449219 21 7 L 21 9 C 21 9.550781 21.449219 10 22 10 Z "/>
<path style=" fill:#8D6C9F;" d="M 27 10 C 27.550781 10 28 9.550781 28 9 L 28 7 C 28 6.449219 27.550781 6 27 6 C 26.449219 6 26 6.449219 26 7 L 26 9 C 26 9.550781 26.449219 10 27 10 Z "/>
<path style=" fill:#8D6C9F;" d="M 32 10 C 32.550781 10 33 9.550781 33 9 L 33 7 C 33 6.449219 32.550781 6 32 6 C 31.449219 6 31 6.449219 31 7 L 31 9 C 31 9.550781 31.449219 10 32 10 Z "/>
<path style=" fill:#8D6C9F;" d="M 37 10 C 37.550781 10 38 9.550781 38 9 L 38 7 C 38 6.449219 37.550781 6 37 6 C 36.449219 6 36 6.449219 36 7 L 36 9 C 36 9.550781 36.449219 10 37 10 Z "/>
<path style=" fill:#8D6C9F;" d="M 42 10 C 42.550781 10 43 9.550781 43 9 L 43 7 C 43 6.449219 42.550781 6 42 6 C 41.449219 6 41 6.449219 41 7 L 41 9 C 41 9.550781 41.449219 10 42 10 Z "/>
<path style=" fill:#8D6C9F;" d="M 47 10 C 47.550781 10 48 9.550781 48 9 L 48 7 C 48 6.449219 47.550781 6 47 6 C 46.449219 6 46 6.449219 46 7 L 46 9 C 46 9.550781 46.449219 10 47 10 Z "/>
<path style=" fill:#8D6C9F;" d="M 52 6 C 51.449219 6 51 6.449219 51 7 L 51 9 C 51 9.550781 51.449219 10 52 10 C 52.550781 10 53 9.550781 53 9 L 53 7 C 53 6.449219 52.550781 6 52 6 Z "/>
<path style=" fill:#FAEFDE;" d="M 50.5 21 L 51.738281 23.261719 L 54 24.5 L 51.738281 25.738281 L 50.5 28 L 49.261719 25.738281 L 47 24.5 L 49.261719 23.261719 Z "/>
<path style=" fill:#FAEFDE;" d="M 47.421875 45 L 48.269531 46.558594 L 49.839844 47.421875 L 48.269531 48.269531 L 47.421875 49.839844 L 46.558594 48.269531 L 45 47.421875 L 46.558594 46.558594 Z "/>
<path style=" fill:#FAEFDE;" d="M 12.648438 33 L 13.230469 34.058594 L 14.289063 34.648438 L 13.230469 35.230469 L 12.648438 36.300781 L 12.058594 35.230469 L 11 34.648438 L 12.058594 34.058594 Z "/>
</g>
</svg>
